PathFileType	4	(X/Y/Z)	C:\Users\Biomechanik\SynologyDrive\AlexP\Athlete_03\Athlete_3_25_03_31\Walking_06\marker_experimental.trc
DataRate	CameraRate	NumFrames	NumMarkers	Units	OrigDataRate	OrigDataStartFrame	OrigNumFrames
200.000000	200.000000	4	53	mm	200.000000	55	445
Frame#	Time	GLAB			RFHD			LFHD			C7			T6			SPINMOL			SPINM2			SPINM3			T12			BELTOL			BELT2			BELT3			SACROL			SACR2			SACR3			LTHOL			LTH2			LTH3			LSHAOL			LSHA2			LSHA3			LHEE			LTOE			LM5			RTHOL			RTH2			RTH3			RSHAOL			RSHA2			RSHA3			RHEE			RTOE			RM5			STRN			XIPH			LACR			LUAOL			LUA2			LUA3			LLAOL			LLA2			LLA3			LWRR			LWRU			RACR			RUAOL			RUA2			RUA3			RLAOL			RLA2			RLA3			RWRR			RWRU			
		X1	Y1	Z1	X2	Y2	Z2	X3	Y3	Z3	X4	Y4	Z4	X5	Y5	Z5	X6	Y6	Z6	X7	Y7	Z7	X8	Y8	Z8	X9	Y9	Z9	X10	Y10	Z10	X11	Y11	Z11	X12	Y12	Z12	X13	Y13	Z13	X14	Y14	Z14	X15	Y15	Z15	X16	Y16	Z16	X17	Y17	Z17	X18	Y18	Z18	X19	Y19	Z19	X20	Y20	Z20	X21	Y21	Z21	X22	Y22	Z22	X23	Y23	Z23	X24	Y24	Z24	X25	Y25	Z25	X26	Y26	Z26	X27	Y27	Z27	X28	Y28	Z28	X29	Y29	Z29	X30	Y30	Z30	X31	Y31	Z31	X32	Y32	Z32	X33	Y33	Z33	X34	Y34	Z34	X35	Y35	Z35	X36	Y36	Z36	X37	Y37	Z37	X38	Y38	Z38	X39	Y39	Z39	X40	Y40	Z40	X41	Y41	Z41	X42	Y42	Z42	X43	Y43	Z43	X44	Y44	Z44	X45	Y45	Z45	X46	Y46	Z46	X47	Y47	Z47	X48	Y48	Z48	X49	Y49	Z49	X50	Y50	Z50	X51	Y51	Z51	X52	Y52	Z52	X53	Y53	Z53	

56	0.275	-53.52402114868179	1602.490112304688	270.8028869628906	-103.2552566528322	1628.928833007812	335.2940979003906	-96.38680267333999	1627.537719726562	197.8201446533203	-283.2969970703127	1446.637329101562	260.8100280761718	-343.4138183593751	1277.346435546875	258.1822509765624	-351.6853027343751	1236.911743164062	237.4938049316406	-355.0380859375001	1229.75634765625	287.4204101562499	-346.6338195800782	1172.89404296875	253.6639862060546	-322.4708251953126	1106.843627929688	255.5331878662109	-358.9407043457032	1071.3251953125	243.4839172363281	-355.5993652343751	1069.48095703125	293.8231201171874	-362.2334899902345	1009.260986328125	265.5359802246093	-346.0498657226564	959.6876220703125	235.9532012939453	-343.0922241210939	956.7210083007812	287.2735290527343	-357.8031616210939	898.3646240234375	259.1412048339843	-196.6446838378907	676.488525390625	45.54099655151364	-224.6090698242188	609.7669067382812	75.66279602050777	-181.9225616455078	618.4103393554688	52.10435867309567	-244.0963897705078	415.7026977539062	37.68578720092769	-319.0576171875	406.6994934082031	63.21023559570307	-284.3779907226562	371.2632446289062	52.41926574707026	-452.5108032226563	295.2731323242188	164.9517974853515	-353.2963867187501	98.83366394042966	158.442153930664	-404.7486267089844	121.383056640625	68.21163177490227	-239.7470245361329	685.0446166992188	428.7303161621093	-178.0956268310548	635.1177978515625	430.1185607910156	-225.299285888672	626.7461547851562	416.3291015624999	-241.9444580078126	335.5835571289062	402.0061340332031	-208.2713012695314	264.3561706542969	397.3123168945312	-255.1506652832032	277.0741882324219	385.6516113281249	-290.4130859375001	65.51754760742186	271.1087341308593	-75.97901916503912	45.97195053100585	279.6445617675781	-131.0294494628907	37.82094955444335	380.4869384765625	-114.4970550537111	1343.392456054688	256.1743774414062	-100.034996032715	1199.573852539062	254.0781555175781	-211.5542449951173	1409.5986328125	85.4146347045898	-218.8362274169923	1256.509765625	-15.45892333984379	-231.1532135009766	1195.322265625	-37.28709793090825	-186.1135711669923	1199.830444335938	-14.72082710266117	-186.4170684814454	994.824462890625	-67.23695373535159	-215.8832092285157	923.5113525390625	-51.09318161010746	-170.5566864013672	935.376220703125	-68.21395111083987	-134.2722320556641	837.8265380859375	-73.11285400390628	-90.94332885742193	845.7333374023438	-7.636824607849138	-196.4473876953127	1401.244140625	426.1268310546874	-207.7059936523439	1253.942749023438	528.2618408203125	-182.6775512695314	1192.5712890625	532.1682739257812	-229.9103851318361	1196.494018554688	551.8638916015625	-185.4418029785158	977.5128784179688	579.5257568359375	-121.5445556640627	931.357421875	595.0104370117188	-167.6257324218752	917.3416137695312	579.9254150390625	-118.9942855834963	840.5519409179688	584.5162963867188	-90.1381454467775	830.9705200195312	508.4101257324219	
57	0.28	-46.86230850219741	1602.963745117188	270.5323791503906	-96.55908966064469	1629.495361328125	335.0120239257812	-89.72080993652358	1627.962280273438	197.5318908691406	-276.7193908691408	1447.196166992188	260.7580261230468	-336.876190185547	1277.9033203125	258.3366699218749	-345.141082763672	1237.475952148438	237.6901245117187	-348.4908752441407	1230.337768554688	287.6167907714843	-340.1088867187501	1173.459838867188	253.8785858154296	-316.0166015625001	1107.418212890625	255.7412109374999	-352.7013244628907	1071.900268554688	243.5425262451171	-349.4123840332032	1070.0185546875	293.8826904296874	-355.9092102050782	1009.812561035156	265.5365295410156	-339.522674560547	960.4432983398438	235.4548797607421	-336.8824768066407	957.2095947265625	286.7848815917968	-351.5749511718751	899.0272216796875	258.2575988769531	-186.5818939208985	677.7393188476562	45.17816925048825	-214.4210815429688	610.6101684570312	74.25769805908199	-171.3641510009766	619.8245239257812	51.50732421874997	-230.9874114990235	415.1065979003906	37.782299041748	-305.9652099609375	404.8110961914062	62.71612167358393	-270.5295715332031	369.9976806640625	52.40167617797847	-438.2769165039063	290.258544921875	165.0450134277343	-332.3202514648438	97.36472320556639	157.6892395019531	-384.6366882324219	118.4540176391601	67.60708618164055	-236.5799255371095	685.8827514648438	428.4351806640624	-175.509002685547	635.2572631835938	430.1856079101562	-222.7113037109376	627.4471435546875	416.0328979492187	-241.3788909912111	336.1406555175781	401.5559387207031	-207.9405212402345	264.7510375976562	397.1942749023437	-254.7120819091798	277.6647033691406	385.1915588378906	-290.1625671386719	66.1316452026367	270.7216491699218	-75.8522567749024	45.85546112060546	279.6295776367188	-130.9751281738282	37.84367752075195	380.4414672851562	-107.9691848754884	1344.015258789062	256.1156005859375	-93.53884887695324	1200.167114257812	254.1907348632812	-205.1295471191407	1410.047241210938	85.31411743164058	-213.334686279297	1256.847900390625	-15.56112861633305	-226.0347900390626	1195.682739257812	-37.29429244995121	-180.8507537841798	1200.0068359375	-14.90864181518558	-183.1843566894532	995.0657958984375	-67.38144683837893	-213.5812225341797	924.101806640625	-51.28739547729496	-168.1409149169922	935.371337890625	-68.52273559570315	-133.2675781250001	837.36572265625	-73.7993087768555	-89.6905136108399	844.408203125	-8.34337997436525	-189.8260040283205	1402.084106445312	426.0304565429687	-200.2519836425783	1255.01611328125	528.4932861328125	-174.8484649658205	1193.786743164062	532.3878173828125	-222.0186004638674	1197.462890625	552.3094482421875	-175.5161285400392	978.7044677734375	579.8495483398438	-110.9310760498049	933.3240966796875	594.7068481445312	-156.952590942383	918.7634887695312	579.9812622070312	-107.308807373047	842.6130981445312	583.9851684570312	-78.89613342285172	833.5344848632812	507.656494140625	
58	0.285	-40.2100105285646	1603.391479492188	270.2294311523438	-89.87262725830094	1630.015502929688	334.69970703125	-83.06890869140639	1628.3330078125	197.2112884521484	-270.1407775878908	1447.698364257812	260.6877441406249	-330.3391418457032	1278.40771484375	258.4607849121093	-338.5969543457032	1237.98974609375	237.8525085449218	-341.9507446289064	1230.866943359375	287.7786865234374	-333.5894165039064	1173.974243164062	254.0575866699218	-309.5744018554689	1107.942016601562	255.9131317138671	-346.462127685547	1072.436401367188	243.5211486816406	-343.2499084472657	1070.512084960938	293.8639221191406	-349.6057128906251	1010.323791503906	265.4491577148437	-333.0149230957032	961.1350708007812	234.9485778808593	-330.6914672851564	957.6602783203125	286.2876281738281	-345.3543701171876	899.6367797851562	257.3951110839843	-176.6337585449219	678.9915771484375	44.81585311889645	-204.3388214111328	611.44580078125	72.82677459716793	-160.9293518066407	621.2340087890625	50.91253662109372	-217.9701385498047	414.3421020507812	37.89571762084957	-292.9197387695312	402.6651000976562	62.25618743896479	-256.7066345214844	368.5268859863281	52.39828872680659	-423.8464965820313	284.8853759765625	165.0912933349609	-311.1709594726563	95.82131195068358	156.9628906249999	-364.2919311523438	115.3709564208984	67.00943756103509	-233.3866577148439	686.6841430664062	428.1169128417968	-172.899139404297	635.3726196289062	430.2454223632812	-220.088348388672	628.1192626953125	415.7282409667968	-240.7294921875001	336.6852111816406	401.0918579101562	-207.5232086181642	265.1402282714844	397.0020141601562	-254.2054443359376	278.2425537109375	384.7295227050781	-289.9109191894532	66.74607086181639	270.3212585449218	-75.73587036132818	45.72882843017577	279.6024780273438	-130.9155883789063	37.87333679199218	380.3824157714844	-101.4417190551759	1344.59130859375	256.0410461425781	-87.04388427734386	1200.703002929688	254.292724609375	-198.6997833251954	1410.448852539062	85.19945526123043	-207.8589935302735	1257.1513671875	-15.68550300598148	-220.9668731689454	1196.009887695312	-37.28980636596684	-175.6149139404298	1200.14697265625	-15.13153839111331	-179.9677886962891	995.2879638671875	-67.5422286987305	-211.2705841064454	924.6795654296875	-51.47689437866214	-165.7313690185547	935.3626098632812	-68.84130859375003	-132.2509460449219	836.9284057617188	-74.48087310791018	-88.43552398681646	843.1206665039062	-9.053783416748063	-183.2061462402345	1402.869750976562	425.9154052734374	-192.8360595703127	1256.04345703125	528.7028198242188	-167.068801879883	1194.95703125	532.603759765625	-214.1903076171877	1198.389892578125	552.7274169921875	-165.6323547363283	979.8693237304688	580.14306640625	-100.3747024536135	935.2910766601562	594.4033203125	-146.3072509765627	920.1748046875	579.9981689453125	-95.6461486816408	844.6924438476562	583.4257202148438	-67.647789001465	836.1309204101562	506.8904724121094	
59	0.29	-33.56640625000015	1603.771118164062	269.8945922851562	-83.19501495361344	1630.48681640625	334.3573608398438	-76.43015289306655	1628.647827148438	196.8587646484375	-263.560028076172	1448.141967773438	260.5994873046874	-323.8020019531251	1278.857788085938	258.5549011230468	-332.0521850585939	1238.451293945312	237.9808654785156	-335.4177246093751	1231.342163085938	287.9060668945312	-327.0751342773439	1174.435546875	254.2013702392578	-303.1437988281251	1108.412841796875	256.0493164062499	-340.2209777832032	1072.93408203125	243.4224090576171	-337.1098022460939	1070.962646484375	293.7698364257812	-343.3225097656251	1010.795532226562	265.2769775390624	-326.5269775390626	961.7601928710938	234.4399719238281	-324.5179443359376	958.0726928710938	285.7877807617187	-339.1359863281251	900.190185546875	256.5624694824218	-166.8128204345703	680.2412109375	44.45212936401364	-194.3611145019532	612.2652587890625	71.37934875488277	-150.6194458007813	622.630126953125	50.32616043090817	-205.0434112548828	413.4197082519531	38.02955627441403	-279.9114685058594	400.2754211425781	61.84920120239253	-242.9067993164063	366.8646850585938	52.41160583496089	-409.2056579589844	279.1734008789062	165.0823822021484	-289.8654174804688	94.21946716308592	156.2641601562499	-343.7225036621094	112.1519470214844	66.41677856445307	-230.158416748047	687.4458618164062	427.7811584472656	-170.2539825439454	635.4616088867188	430.2978210449218	-217.4223937988282	628.7601318359375	415.4199829101562	-239.9924926757814	337.212890625	400.6178283691406	-207.0162963867189	265.5191040039062	396.7389831542968	-253.6274871826173	278.8038330078125	384.2686767578124	-289.6591186523438	67.35748291015624	269.9082641601562	-75.63305664062506	45.59284210205077	279.5635070800781	-130.8512115478516	37.90975189208984	380.309814453125	-94.91287994384778	1345.116577148438	255.950454711914	-80.54978179931652	1201.177856445312	254.3842163085937	-192.2635040283204	1410.800537109375	85.07098388671872	-202.4069976806641	1257.417724609375	-15.83061599731449	-215.9431915283204	1196.30224609375	-37.27660369873051	-170.4049377441407	1200.248291015625	-15.38654708862308	-176.7649230957032	995.4877319335938	-67.71869659423831	-208.9476470947266	925.2403564453125	-51.66096878051761	-163.3251190185547	935.3471069335938	-69.16960144042972	-131.2175292968751	836.510009765625	-75.15779113769534	-87.17050933837896	841.8675537109375	-9.770792961120621	-176.5851440429689	1403.597900390625	425.7820129394531	-185.4571228027345	1257.02001953125	528.89111328125	-159.3386383056642	1196.077026367188	532.8170776367188	-206.4258270263674	1199.271240234375	553.1175537109375	-155.7907562255861	981.004150390625	580.4072265625	-89.87543487548845	937.2533569335938	594.1000366210938	-135.6917266845705	921.5731811523438	579.9776000976562	-84.01084136962908	846.785400390625	582.8380126953125	-56.39569091796889	838.757568359375	506.1123962402344	
